PathFileType	4	(X/Y/Z)	T1_P2_NoVision_NoMovement_4_0-734.trc
DataRate	CameraRate	NumFrames	NumMarkers	Units	OrigDataRate	OrigDataStartFrame	OrigNumFrames
60	60	6	27	m	60	91	734
Frame#	Time	RHip			RKnee			RAnkle			RBigToe			RSmallToe			RHeel			LHip			LKnee			LAnkle			LBigToe			LSmallToe			LHeel			Neck			Head			Nose			RShoulder			RElbow			RWrist			RThumb			RIndex			RPinky			LShoulder			LElbow			LWrist			LThumb			LIndex			LPinky		
		X1	Y1	Z1	X2	Y2	Z2	X3	Y3	Z3	X4	Y4	Z4	X5	Y5	Z5	X6	Y6	Z6	X7	Y7	Z7	X8	Y8	Z8	X9	Y9	Z9	X10	Y10	Z10	X11	Y11	Z11	X12	Y12	Z12	X13	Y13	Z13	X14	Y14	Z14	X15	Y15	Z15	X16	Y16	Z16	X17	Y17	Z17	X18	Y18	Z18	X19	Y19	Z19	X20	Y20	Z20	X21	Y21	Z21	X22	Y22	Z22	X23	Y23	Z23	X24	Y24	Z24	X25	Y25	Z25	X26	Y26	Z26	X27	Y27	Z27
92	1.5333333333333334	462.94719470063563	3629.5509054598833	527.3427917034425	861.5629701309437	3675.7312579770473	542.9891135776904	1253.3225496940406	3745.4630065540105	616.6847955277763	1322.6408956988068	3616.8363493315633	549.3579871476646	1315.739311151293	3674.7242042330954	521.71554231104	1280.852723280991	3730.4484170048922	627.2214196821484	462.79696770041227	3511.393410693046	724.7795570352506	865.6783523928832	3549.4262527784654	738.5164199875356	1236.5483117823362	3605.855814213824	725.5179039761155	1311.9815945530743	3509.346774689264	674.6653023424491	1270.6313990830304	3442.3913785829855	703.4745130793591	1267.5047366010338	3605.497763084246	700.0891632303413	-113.02450914474178	3542.759679994944	638.1377937453542	-372.7561887660053	3495.304391164835	640.9429176805132	-224.8471473649822	3446.0491205731723	597.797091015872	-44.619401358370226	3699.8651570330226	539.187179819794	201.1924326925137	3662.0701797096604	426.8207248609879	353.88432634676616	3443.3081605949574	471.53196208944905	424.8999840001951	3402.754414091717	539.8686528209095	440.1352946207933	3449.906307208986	581.2300669423726	456.62149862235316	3391.6617464923993	540.1132765084756	-21.831346514743974	3486.606522147812	767.5059222275182	219.37562720096125	3364.875451358285	736.0109734481115	367.36830820354294	3384.4798161053914	586.4567455893994	418.2785976052461	3406.7550697471966	487.01751745954095	434.80624776444193	3410.6785381675986	485.16382002543213	457.96190766927816	3355.1361279547255	520.876373846499
93	1.55	463.05510612493373	3629.5432369482064	527.3726781606508	862.0541887498363	3677.339492146256	538.163906118465	1253.4542608216434	3745.9216955837055	616.7257354493555	1322.447094254256	3616.722934132999	549.2557975319486	1309.8215799348918	3672.956843454615	520.0285165866419	1280.9984074907068	3730.7286073478444	627.1015489530516	463.035731629147	3511.5367737279475	724.8853864214935	870.6789987996809	3550.467717048889	739.7569092915369	1238.9184277487025	3600.7781512587603	722.668505779308	1304.2850069577619	3488.7077725186496	668.9037946817559	1270.5170536670887	3442.122791592039	703.3495378546595	1267.6605564814365	3605.4970530989435	699.8188220588685	-108.42369756305077	3544.345920066416	638.7709763734555	-372.75965280524156	3495.308538944221	640.9321841060284	-224.76512691703522	3446.1084071889945	597.7697713279895	-39.91964142171585	3700.9432014404933	539.4988257294464	200.61008237649932	3654.1773094088608	423.7073876078901	353.9229960818872	3443.3775940503997	471.53269331404294	423.0525668495367	3414.3557269140642	551.8609478076952	439.94494609744294	3450.2815326548443	581.5318314360212	461.2164176066073	3393.0617197787606	540.9130106636542	-21.803835376580103	3486.514078408648	767.5104381240404	219.307750013255	3365.129352786274	736.4634655375793	362.66250844213084	3380.6595784475044	585.1669701843659	413.98341959925995	3403.901302977087	486.51810710789556	434.78897170766413	3410.907073300812	485.3312948523348	457.7329816951208	3355.5250840436215	521.1831356079671
94	1.5666666666666667	463.0884196604014	3629.5148354059083	527.3375678881871	862.3462703614997	3676.6960583663667	543.5873626482249	1253.2033998877534	3745.335177766803	616.596329823461	1330.3550478015325	3632.7764309517256	562.6492571629218	1310.0848696931241	3673.371691110661	520.4503758592366	1280.7479622049113	3730.0810594959225	626.9056891355299	462.99961367142345	3511.3911002328373	724.8622014874339	865.6997750045988	3549.0347762556976	738.5741304503255	1233.480279706285	3598.7354675331876	720.9088396050479	1309.713728981964	3488.722805109647	673.0449034091688	1270.510702401923	3441.9962503528254	703.3748597752812	1267.6097372438603	3602.429182115139	703.8894785147073	-108.40033977924155	3544.2666281686247	638.7389742678134	-372.7350641882967	3495.260592109492	640.8933475096617	-224.75495015117338	3446.0210985545536	597.7342897409632	-44.52088206451587	3699.753880324982	539.0832949691069	205.38261008536952	3657.5116562375592	424.7560961999223	353.9169423931349	3443.280557546355	471.50028616528596	427.589051230534	3418.0520694464262	552.9045866007326	442.9897565709181	3465.1987401103634	594.2250266085068	464.2997729697666	3411.587375689174	546.164192871857	-20.915899585342032	3501.6686422364814	781.6564887244573	219.43384141262888	3365.2901775613973	736.4321746823252	362.69487162284776	3380.8736686180587	585.258684385784	413.982996192049	3404.3617852067878	486.6612690777595	434.7593887502457	3411.204412381945	485.41763094557086	457.57082422618777	3355.53454240631	521.1572519137669
95	1.5833333333333333	463.10545907798564	3629.62148505858	527.4730712747439	858.7220471105383	3682.2949778590264	546.3598150429845	1250.5364961416888	3751.4577212286326	619.5823904138255	1325.5212936291675	3631.3799133822854	561.2772286804536	1310.210787839755	3673.5148368778364	520.9419490586647	1280.7196064654067	3730.043522583759	626.8079295936037	462.9248292545328	3511.4700931471302	724.9255792307032	865.8839006305997	3549.3622564570314	738.6867573502602	1239.0818473899562	3600.4460640048255	722.5095569699904	1309.7332151078224	3489.0252895095487	673.0844518682142	1270.565118868143	3442.039253235226	703.2928759843113	1274.6696169375336	3619.7915654578273	712.8172052710462	-108.40144250038722	3544.3255360237085	638.745536758848	-372.7171514190672	3495.182245802643	640.8939196371035	-224.70689883915435	3446.0559036464633	597.7387956697833	-44.527713231429715	3699.74440074371	539.0858586408916	205.31293710698426	3657.733444593241	424.83174626110974	353.8386334357563	3443.2930990396712	471.4263896728466	426.570563337113	3441.094478681425	560.0093227469313	442.93347694274524	3465.4458602174323	594.3646563706201	459.66977031044456	3409.47757633344	544.8356741827776	-20.929131542363628	3501.66864952573	781.6454377741338	215.23050744448787	3369.332079345219	738.9846984477481	362.6954571425923	3380.9209059305554	585.2796205690771	413.81299808518065	3404.8145612494927	486.61846915450855	434.68845517175794	3411.6525517835553	485.4875556576672	457.7382088694977	3355.6522487813904	521.0556634686241
96	1.6	463.1213405376669	3629.5519834567485	527.4475147887644	862.0418471454765	3676.0927425637574	543.4188380120568	1247.276257066805	3743.715067858978	615.15233143933	1325.349883897522	3631.031354387256	561.0389046879104	1310.125628620336	3673.4694797226575	520.7781688360888	1280.7505712785053	3729.8709360717867	626.7178353361838	462.82188935162355	3511.4923801395184	724.8663142994512	870.7062205967893	3550.37634079453	739.7797920294532	1239.1073125529297	3600.6430036048564	722.7603983961403	1309.5419235743266	3489.1092120332514	673.074478832512	1270.5439800306226	3441.813312849391	703.1640517628056	1267.8293114558408	3602.6154218235943	704.0520327779441	-108.41328191104134	3544.3978557233286	638.8500888367223	-372.75772375537036	3495.2594547115746	640.9242469663099	-224.65187490928892	3431.93216032	585.5653517198796	-44.58617646933195	3699.700572725457	539.0923462326209	205.25937951926798	3657.841183732311	424.874245542113	353.81981775308543	3443.1827874161895	471.3629363010875	420.86477268957344	3407.0924860682057	542.0547357593151	439.85851969934987	3450.108270686704	581.3397342286771	459.5106386776344	3409.857686411527	545.2244352560913	-20.916701086399474	3501.643303429864	781.6234371993297	219.3883233338826	3365.3966358260636	736.4393140613136	362.6867477938668	3380.786130730543	585.1852517895528	410.7377926868656	3407.47619433864	487.88712845278366	434.47871918190936	3411.0137075993675	485.17165793439403	453.8778973089009	3359.5330325572777	523.1823847621405
97	1.6166666666666667	468.3332934973955	3633.5245877403245	528.7104359690981	863.5365686343213	3684.5827689933217	547.6054042784691	1250.604144408624	3751.733490147972	619.7343088234469	1318.0186817280176	3610.4562518942957	555.8126023610404	1316.6223467575228	3677.5184985458195	521.6203159489909	1278.2031187423943	3735.8075801311	629.9529740216934	462.891228073669	3511.421869794647	724.8787553126291	870.8379977991499	3550.833721086699	739.8327588519985	1239.0283572695141	3600.570624538841	722.5822123237875	1309.4511347890152	3488.5838472993664	672.8652548388241	1270.3947076549193	3441.4482791009236	702.906282465156	1267.5639795269801	3602.968253043634	704.326894634684	-112.92930370300533	3543.0094144152526	638.3636651158438	-372.78828976276475	3495.1443020641805	640.9286123747685	-224.59348745666503	3431.4998394192426	585.3888489843335	-44.73854102845275	3699.914966848214	539.2592016818076	201.15056382342794	3662.152104340053	426.9765941255461	353.8000688335188	3443.451432485463	471.5259082828375	419.111385437062	3418.294747360799	553.9659142165211	442.77211725921603	3465.1592066671637	594.2542010879613	459.5597530342111	3410.126450419133	545.2655478985605	-20.985285447877384	3501.8361496577654	781.7690243993616	215.18347324363992	3369.1500747371797	738.846146497655	362.5556969783782	3380.778553721481	585.2419465776384	413.6773376487395	3404.2305500379694	486.5489777959795	434.4277712778179	3411.3599109734523	485.47135518765816	453.7739723723982	3360.121524999391	523.6042579237005
